<?xml version="1.0" encoding="UTF-8" standalone="no"?>
<!-- Svg Vector Icons : http://www.onlinewebfonts.com/icon -->

<svg
   xmlns:dc="http://purl.org/dc/elements/1.1/"
   xmlns:cc="http://creativecommons.org/ns#"
   xmlns:rdf="http://www.w3.org/1999/02/22-rdf-syntax-ns#"
   xmlns:svg="http://www.w3.org/2000/svg"
   xmlns="http://www.w3.org/2000/svg"
   xmlns:sodipodi="http://sodipodi.sourceforge.net/DTD/sodipodi-0.dtd"
   xmlns:inkscape="http://www.inkscape.org/namespaces/inkscape"
   version="1.1"
   x="0px"
   y="0px"
   viewBox="0 0 1000 1000"
   enable-background="new 0 0 1000 1000"
   xml:space="preserve"
   id="svg10"
   sodipodi:docname="e1e32e235eee1f970470a3a6658dfdd5.svg"
   inkscape:version="0.92.4 5da689c313, 2019-01-14"><defs
   id="defs14" /><sodipodi:namedview
   pagecolor="#ffffff"
   bordercolor="#666666"
   borderopacity="1"
   objecttolerance="10"
   gridtolerance="10"
   guidetolerance="10"
   inkscape:pageopacity="0"
   inkscape:pageshadow="2"
   inkscape:window-width="1853"
   inkscape:window-height="1968"
   id="namedview12"
   showgrid="false"
   inkscape:zoom="0.236"
   inkscape:cx="500"
   inkscape:cy="500"
   inkscape:window-x="119"
   inkscape:window-y="119"
   inkscape:window-maximized="0"
   inkscape:current-layer="svg10" />
<metadata
   id="metadata2"> Svg Vector Icons : http://www.onlinewebfonts.com/icon <rdf:RDF><cc:Work
     rdf:about=""><dc:format>image/svg+xml</dc:format><dc:type
       rdf:resource="http://purl.org/dc/dcmitype/StillImage" /><dc:title></dc:title></cc:Work></rdf:RDF></metadata>
<g
   id="g8"
   style="fill:#ffffff"><g
     id="g6"
     style="fill:#ffffff"><path
       d="M41.3,243.3c26.6,14.3,394.6,212,408.3,219.4c13.7,7.4,31.5,10.8,49.3,10.8c17.9,0,35.6-3.5,49.3-10.8C562,455.4,930,257.6,956.6,243.3c26.6-14.3,51.8-70,2.9-70H38.4C-10.5,173.3,14.7,229,41.3,243.3z M968.9,363.3C938.7,379,566.7,572.8,548.2,582.5c-18.5,9.7-31.5,10.8-49.3,10.8c-17.9,0-30.8-1.1-49.3-10.8C431.1,572.8,61.2,379,31,363.2c-21.2-11.1-21,1.9-21,11.9c0,10,0,397.1,0,397.1c0,22.9,30.8,54.4,54.4,54.4h871.1c23.6,0,54.4-31.6,54.4-54.4c0,0,0-387,0-397C990,365.2,990.2,352.2,968.9,363.3L968.9,363.3z"
       id="path4"
       style="fill:#ffffff" /></g></g>
</svg>